<svg xmlns="http://www.w3.org/2000/svg" xml:space="preserve" viewBox="0 0 180 180">
  <g style="clip-rule:evenodd;fill:#fff;fill-opacity:1;fill-rule:evenodd;stroke-linejoin:round;stroke-miterlimit:2">
    <rect width="180" height="180" ry="37.934" style="clip-rule:evenodd;fill:#171717;fill-opacity:1;fill-rule:evenodd;stroke-linejoin:round;stroke-miterlimit:2"/>
  </g>
  <g class="text" style="clip-rule:evenodd;fill:#fff;fill-opacity:1;fill-rule:evenodd;stroke-linejoin:round;stroke-miterlimit:2">
    <path d="M559.24 398.12c0 29.37 0 65.9 11.93 94.21 12.53 31.28 39.49 47.24 80.11 47.24 38.77 0 66.05-17.26 81.06-51.28v-.11l.06-.13c8.2-20.11 11.16-42.84 12.24-63.15.275-5.077 4.535-9.103 9.62-9.09h167.442c5.272 0 9.61 4.338 9.61 9.61l-.002.18c-2 88-15.53 141.56-75 208-67 73.69-164.3 81.67-207 81.67-86.65 0-148.1-27.83-201-82.69-46.51-48.31-75.34-104.37-75.34-234.45l31.88-159.67" class="text" style="fill:#fff;fill-opacity:1;fill-rule:nonzero" transform="translate(4.275 24.256) scale(.18409)"/>
    <path d="M559.24 606.65V317.14c0-29.37 0-65.9 11.93-94.21 12.53-31.29 39.49-47.24 80.11-47.24 38.77 0 66.05 17.26 81.06 51.28v.11l.06.13c8.2 20.11 11.16 42.84 12.24 63.15.275 5.076 4.537 9.098 9.62 9.08h167.452c5.266 0 9.6-4.334 9.6-9.6l-.002-.18c-2-88-15.53-141.56-75-208C789.26 8 692 0 649.25 0c-86.65 0-148.1 27.82-201 82.69-46.51 48.3-75.34 104.37-75.34 234.45v225.94" class="text" style="fill:#fff;fill-opacity:1;fill-rule:nonzero" transform="translate(4.275 24.256) scale(.18409)"/>
    <path d="M558.89 416.32c0 130.08-29.34 167.94-75.85 216.25-52.88 54.86-114.33 82.69-201 82.69-42.71 0-140-8-207-81.67-59.51-66.43-73-120-75-208l-.002-.17c0-5.277 4.343-9.62 9.62-9.62H177c5.083-.012 9.34 4.014 9.61 9.09 1.09 20.31 4.05 43 12.24 63.15l.06.13v.11c15 34 42.29 51.28 81.07 51.28 40.61 0 67.58-16 80.11-47.24 11.92-28.31 12.94-46.64 12.94-76" class="text" style="fill:#fff;fill-opacity:1;fill-rule:nonzero" transform="translate(4.275 24.256) scale(.18409)"/>
  </g>
  <g style="clip-rule:evenodd;fill-rule:evenodd;stroke-linejoin:round;stroke-miterlimit:2" transform="translate(1.815 1.907) scale(.97984)">
    <circle cx="279.06" cy="88.9" r="88.37" style="fill:#ff0a52" transform="translate(-20.668 22.484) scale(.25646)"/>
  </g>
</svg>
