<?xml version="1.0" encoding="UTF-8" standalone="no"?>
<svg
   xml:space="preserve"
   viewBox="0 0 180 180"
   version="1.1"
   id="svg4"
   sodipodi:docname="icon.svg"
   inkscape:version="1.3 (0e150ed, 2023-07-21)"
   inkscape:export-filename="apple-icon.png"
   inkscape:export-xdpi="96"
   inkscape:export-ydpi="96"
   xmlns:inkscape="http://www.inkscape.org/namespaces/inkscape"
   xmlns:sodipodi="http://sodipodi.sourceforge.net/DTD/sodipodi-0.dtd"
   xmlns="http://www.w3.org/2000/svg"
   xmlns:svg="http://www.w3.org/2000/svg"><defs
   id="defs4" /><sodipodi:namedview
   id="namedview4"
   pagecolor="#ffffff"
   bordercolor="#999999"
   borderopacity="1"
   inkscape:showpageshadow="2"
   inkscape:pageopacity="0"
   inkscape:pagecheckerboard="0"
   inkscape:deskcolor="#d1d1d1"
   inkscape:zoom="1.3111111"
   inkscape:cx="89.618644"
   inkscape:cy="90"
   inkscape:window-width="1440"
   inkscape:window-height="847"
   inkscape:window-x="0"
   inkscape:window-y="25"
   inkscape:window-maximized="1"
   inkscape:current-layer="svg4" />&#10;  <g
   style="clip-rule:evenodd;fill-rule:evenodd;stroke-linejoin:round;stroke-miterlimit:2"
   id="g1">&#10;    <rect
   width="180"
   height="180"
   ry="21.645"
   style="fill:#000"
   id="rect1" />&#10;  </g>&#10;  <g
   style="clip-rule:evenodd;fill-rule:evenodd;stroke-linejoin:round;stroke-miterlimit:2"
   id="g3"
   transform="matrix(0.95640843,0,0,0.95640843,3.9222667,3.9218413)">&#10;    <path
   d="m 559.24,398.12 c 0,29.37 0,65.9 11.93,94.21 12.53,31.28 39.49,47.24 80.11,47.24 38.77,0 66.05,-17.26 81.06,-51.28 v -0.11 l 0.06,-0.13 c 8.2,-20.11 11.16,-42.84 12.24,-63.15 0.275,-5.077 4.535,-9.103 9.62,-9.09 h 167.442 c 5.272,0 9.61,4.338 9.61,9.61 l -0.002,0.18 c -2,88 -15.53,141.56 -75,208 -67,73.69 -164.3,81.67 -207,81.67 -86.65,0 -148.1,-27.83 -201,-82.69 C 401.8,584.27 372.97,528.21 372.97,398.13 l 31.88,-159.67"
   style="fill:#ffffff;fill-rule:nonzero"
   transform="matrix(0.18788,0,0,0.18788,2.51,22.809)"
   id="path1" />&#10;    <path
   d="M 559.24,606.65 V 317.14 c 0,-29.37 0,-65.9 11.93,-94.21 12.53,-31.29 39.49,-47.24 80.11,-47.24 38.77,0 66.05,17.26 81.06,51.28 v 0.11 l 0.06,0.13 c 8.2,20.11 11.16,42.84 12.24,63.15 0.275,5.076 4.537,9.098 9.62,9.08 h 167.452 c 5.266,0 9.6,-4.334 9.6,-9.6 l -0.002,-0.18 c -2,-88 -15.53,-141.56 -75,-208 C 789.26,8 692,0 649.25,0 c -86.65,0 -148.1,27.82 -201,82.69 -46.51,48.3 -75.34,104.37 -75.34,234.45 v 225.94"
   style="fill:#ffffff;fill-rule:nonzero"
   transform="matrix(0.18788,0,0,0.18788,2.51,22.809)"
   id="path2" />&#10;    <path
   d="m 558.89,416.32 c 0,130.08 -29.34,167.94 -75.85,216.25 -52.88,54.86 -114.33,82.69 -201,82.69 -42.71,0 -140,-8 -207,-81.67 -59.51,-66.43 -73,-120 -75,-208 l -0.002,-0.17 c 0,-5.277 4.343,-9.62 9.62,-9.62 H 177 c 5.083,-0.012 9.34,4.014 9.61,9.09 1.09,20.31 4.05,43 12.24,63.15 l 0.06,0.13 v 0.11 c 15,34 42.29,51.28 81.07,51.28 40.61,0 67.58,-16 80.11,-47.24 11.92,-28.31 12.94,-46.64 12.94,-76"
   style="fill:#ffffff;fill-rule:nonzero"
   transform="matrix(0.18788,0,0,0.18788,2.51,22.809)"
   id="path3" />&#10;  </g>&#10;  <g
   style="clip-rule:evenodd;fill-rule:evenodd;stroke-linejoin:round;stroke-miterlimit:2"
   id="g4">&#10;    <circle
   cx="279.06"
   cy="88.9"
   r="88.37"
   style="fill:#ff0a52"
   transform="translate(-20.668 22.484) scale(.25646)"
   id="circle3" />&#10;  </g>&#10;</svg>
